<?xml version="1.0" encoding="UTF-8" standalone="no"?>
<!-- Created with Inkscape (http://www.inkscape.org/) -->
<svg
   xmlns:dc="http://purl.org/dc/elements/1.1/"
   xmlns:cc="http://creativecommons.org/ns#"
   xmlns:rdf="http://www.w3.org/1999/02/22-rdf-syntax-ns#"
   xmlns:svg="http://www.w3.org/2000/svg"
   xmlns="http://www.w3.org/2000/svg"
   xmlns:sodipodi="http://sodipodi.sourceforge.net/DTD/sodipodi-0.dtd"
   xmlns:inkscape="http://www.inkscape.org/namespaces/inkscape"
   width="1700"
   height="500"
   id="svg2"
   sodipodi:version="0.32"
   inkscape:version="0.46"
   version="1.0"
   sodipodi:docname="VersionLogo.svg"
   inkscape:output_extension="org.inkscape.output.svg.inkscape"
   inkscape:export-filename="/Users/eko/dev/eclipse/workspace/HaloGameMaster/UserGuide/VersionLogo.png"
   inkscape:export-xdpi="90"
   inkscape:export-ydpi="90">
  <defs
     id="defs4">
    <inkscape:perspective
       sodipodi:type="inkscape:persp3d"
       inkscape:vp_x="0 : 526.18109 : 1"
       inkscape:vp_y="0 : 1000 : 0"
       inkscape:vp_z="744.09448 : 526.18109 : 1"
       inkscape:persp3d-origin="372.04724 : 350.78739 : 1"
       id="perspective10" />
    <filter
       inkscape:collect="always"
       id="filter3187">
      <feGaussianBlur
         inkscape:collect="always"
         stdDeviation="5.5828126"
         id="feGaussianBlur3189" />
    </filter>
    <filter
       inkscape:collect="always"
       id="filter3408">
      <feGaussianBlur
         inkscape:collect="always"
         stdDeviation="5.4245156"
         id="feGaussianBlur3410" />
    </filter>
  </defs>
  <sodipodi:namedview
     id="base"
     pagecolor="#ffffff"
     bordercolor="#666666"
     borderopacity="1.0"
     gridtolerance="10000"
     guidetolerance="10"
     objecttolerance="10"
     inkscape:pageopacity="0.0"
     inkscape:pageshadow="2"
     inkscape:zoom="0.39704046"
     inkscape:cx="857.59522"
     inkscape:cy="354.6783"
     inkscape:document-units="px"
     inkscape:current-layer="g3339"
     showgrid="false"
     showguides="true"
     inkscape:guide-bbox="true"
     inkscape:window-width="1367"
     inkscape:window-height="755"
     inkscape:window-x="0"
     inkscape:window-y="22" />
  <metadata
     id="metadata7">
    <rdf:RDF>
      <cc:Work
         rdf:about="">
        <dc:format>image/svg+xml</dc:format>
        <dc:type
           rdf:resource="http://purl.org/dc/dcmitype/StillImage" />
      </cc:Work>
    </rdf:RDF>
  </metadata>
  <g
     inkscape:label="Layer 1"
     inkscape:groupmode="layer"
     id="layer1"
     transform="translate(570.4223,-91.032551)"
     style="display:inline">
    <g
       id="g3339">
      <g
         id="g3390"
         transform="translate(5,5)"
         style="opacity:0.42346939000000000;filter:url(#filter3408)">
        <g
           transform="matrix(1.499564,0,0,1.499564,-139.69893,-155.7968)"
           id="g3392">
          <path
             style="font-size:714.74145507999992333px;font-style:normal;font-variant:normal;font-weight:normal;font-stretch:normal;text-align:start;line-height:125%;writing-mode:lr-tb;text-anchor:start;opacity:1;fill:#000e54;fill-opacity:1;stroke:none;stroke-width:1px;stroke-linecap:butt;stroke-linejoin:miter;stroke-opacity:1;display:inline;font-family:Halo;-inkscape-font-specification:Halo"
             d="M 661.15625,157.75 C 653.5082,157.75017 646.10674,158.15435 638.96875,158.96875 C 631.83057,159.78348 624.86061,160.88717 618.0625,162.3125 L 619.34375,170.875 C 610.84597,173.11522 602.93297,176.08459 595.625,179.75 C 588.48685,183.21206 582.02838,187.28513 576.25,191.96875 C 570.64147,196.44898 565.90894,201.43929 562,206.9375 C 558.57966,211.57046 555.97874,216.49355 554.25,221.75 C 554.00306,222.50092 553.77494,223.2676 553.5625,224.03125 L 553.3125,224.03125 L 537.78125,224.03125 L 544.15625,242.0625 L 565.3125,242.0625 C 565.22752,241.55344 565.13624,241.05194 565.09375,240.59375 C 565.05128,240.13556 565.03124,239.71981 565.03125,239.3125 C 565.03124,238.49799 565.03122,237.58078 565.03125,236.5625 C 565.03125,230.60605 566.44635,224.91508 569.21875,219.53125 C 569.4498,219.0826 569.68721,218.63218 569.9375,218.1875 C 570.68838,216.85347 571.51336,215.54824 572.4375,214.25 C 577.36616,207.32628 584.06472,201.30991 592.5625,196.21875 C 601.23013,190.92419 611.26924,186.77352 622.65625,183.71875 C 634.04315,180.66428 646.28835,179.12513 659.375,179.125 C 672.29145,179.12514 684.53668,180.66428 696.09375,183.71875 C 707.65053,186.77352 717.65836,190.92419 726.15625,196.21875 C 734.65381,201.30991 741.38361,207.32628 746.3125,214.25 C 751.41091,221.17394 753.93728,228.62056 753.9375,236.5625 C 753.93729,244.5046 751.41091,252.02886 746.3125,259.15625 C 741.38361,266.08016 734.65382,272.20536 726.15625,277.5 C 717.65835,282.59111 707.65052,286.66414 696.09375,289.71875 C 688.81312,291.51484 681.26012,292.7182 673.4375,293.375 L 673.4375,318.09375 C 686.1064,317.39048 698.24781,315.55822 709.84375,312.625 C 725.13952,308.55219 738.56788,303.15769 750.125,296.4375 C 761.68174,289.51372 771.01789,281.44519 778.15625,272.28125 C 785.29412,262.9138 789.30624,252.93319 790.15625,242.34375 L 814.375,242.34375 L 814.375,234.40625 L 790.15625,234.40625 C 789.30624,223.81696 785.29408,213.83641 778.15625,204.46875 C 771.18792,195.10136 761.9317,186.95521 750.375,180.03125 C 738.81789,173.10757 725.38952,167.71308 710.09375,163.84375 C 694.79766,159.77107 678.49152,157.75017 661.15625,157.75 z M 662.8125,229.4375 C 657.31575,229.43757 652.58231,230.52016 648.65625,232.71875 C 644.72997,234.76043 642.78115,237.29744 642.78125,240.28125 C 642.78117,243.26522 644.72995,245.83265 648.65625,248.03125 C 652.58233,250.07291 657.31575,251.09379 662.8125,251.09375 C 667.8379,251.09379 672.13778,250.32053 675.75,248.75 C 679.36197,247.02255 681.65133,244.91904 682.59375,242.40625 L 696.25,242.40625 L 696.25,237.90625 L 682.59375,237.90625 C 681.4943,235.39356 679.14322,233.35179 675.53125,231.78125 C 671.91906,230.21083 667.68086,229.43757 662.8125,229.4375 z"
             transform="translate(26.203119,29.690806)"
             id="path3394" />
          <path
             style="font-size:714.74145507999992333px;font-style:normal;font-variant:normal;font-weight:normal;font-stretch:normal;text-align:start;line-height:125%;writing-mode:lr-tb;text-anchor:start;opacity:1;fill:#002d16;fill-opacity:1;stroke:none;stroke-width:1px;stroke-linecap:butt;stroke-linejoin:miter;stroke-opacity:1;display:inline;font-family:Halo;-inkscape-font-specification:Halo"
             d="M 420.375,166.46875 C 403.51161,166.46892 387.58901,168.5301 372.5625,172.65625 C 357.53577,176.57644 344.32213,182.04788 332.96875,189.0625 C 321.61521,196.07742 312.44988,204.21587 305.4375,213.5 C 298.425,222.78439 294.49106,232.80286 293.65625,243.53125 L 269.875,243.53125 L 269.875,251.5625 L 293.65625,251.5625 C 294.32409,262.49737 298.17501,272.72823 305.1875,282.21875 C 312.19985,291.50308 321.36523,299.64151 332.71875,306.65625 C 344.07215,313.67107 357.28579,319.24866 372.3125,323.375 C 380.58091,325.53204 389.15612,327.06114 398.03125,328.03125 L 398.03125,305.75 C 393.85665,305.08911 389.77731,304.27376 385.8125,303.25 C 374.62588,300.15529 364.79625,296.03297 356.28125,290.875 C 347.93302,285.51083 341.34186,279.32735 336.5,272.3125 C 331.65801,265.0915 329.21872,257.45267 329.21875,249.40625 C 329.2187,241.35998 332.07319,233.82736 337.75,226.8125 C 343.59359,219.79783 350.93213,213.72055 359.78125,208.5625 C 368.79714,203.19839 378.74104,198.96988 389.59375,195.875 C 400.61313,192.78039 411.3562,191.21888 421.875,191.21875 C 432.39346,191.21889 441.25795,191.82475 448.4375,193.0625 C 455.78365,194.30055 462.20878,195.96822 467.71875,198.03125 C 473.22829,200.09456 478.15875,202.36809 482.5,204.84375 C 486.84079,207.11337 491.19001,209.49306 495.53125,211.96875 L 504.28125,200.1875 C 500.77479,197.2992 496.01042,194.41982 490,191.53125 C 483.98908,188.43662 477.3149,185.73838 469.96875,183.46875 C 462.78916,180.9931 455.36757,179.03812 447.6875,177.59375 C 440.00701,176.14969 432.91765,175.54382 426.40625,175.75 L 425.15625,166.46875 L 420.375,166.46875 z M 398.03125,305.75 C 405.63488,306.9538 413.57541,307.59377 421.875,307.59375 C 432.89436,307.59381 443.41957,306.45701 453.4375,304.1875 C 459.81929,302.74174 465.80618,300.91815 471.375,298.71875 L 446.5625,258.25 L 432.5,258.25 L 432.5,246.65625 L 366.34375,246.65625 L 366.34375,261.125 L 389.78125,261.125 C 391.61913,261.12523 393.4433,262.5198 395.28125,265.28125 C 397.11914,267.76695 398.03118,269.97329 398.03125,271.90625 L 398.03125,305.75 z M 471.375,298.71875 L 478.375,310.15625 C 480.37406,309.251 482.3378,308.2939 484.25,307.28125 C 491.42914,303.56758 497.77124,299.44527 503.28125,294.90625 C 508.95774,290.16103 513.72212,285.08302 517.5625,279.71875 C 521.40239,274.14825 524.14258,268.28332 525.8125,262.09375 C 527.64884,256.11065 528.64526,250.10827 528.8125,244.125 L 470.46875,244.125 L 470.46875,253.4375 L 481.5,253.4375 L 481.5,261.78125 L 512.5625,261.78125 C 510.22479,268.38347 506.2908,274.46074 500.78125,280.03125 C 495.27125,285.60187 488.51398,290.46744 480.5,294.59375 C 477.59124,296.09139 474.54761,297.46573 471.375,298.71875 z M 478.375,310.15625 C 473.04285,312.5709 467.41894,314.59936 461.46875,316.25 L 462.46875,324.59375 C 449.44543,327.68854 435.40148,329.25 420.375,329.25 C 412.71569,329.25001 405.28524,328.82415 398.03125,328.03125 L 398.03125,425.59375 C 398.03118,428.63162 397.11916,431.81102 395.28125,435.125 C 393.44328,438.43902 391.61914,440.22387 389.78125,440.5 L 371.5625,440.5 L 371.5625,453.78125 L 393.34375,453.78125 L 393.34375,464.125 L 435.8125,464.125 L 435.8125,455.84375 L 451.25,455.84375 L 451.25,339.84375 L 512.1875,434.71875 L 546.625,434.71875 L 571.15625,395.34375 L 584.125,395.34375 L 620.25,339.03125 L 620.25,448.375 L 603.96875,448.375 L 603.96875,453.78125 L 620.25,453.78125 L 620.25,464.125 L 656.375,464.125 L 656.375,455.84375 L 699.65625,455.84375 L 699.65625,444.65625 L 681.4375,444.65625 C 679.78308,444.38013 678.05639,442.59529 676.21875,439.28125 C 674.38047,435.96731 673.43716,432.78786 673.4375,429.75 L 673.4375,318.09375 C 669.39496,318.31819 665.30859,318.40625 661.15625,318.40625 L 656.3125,318.40625 L 655.03125,309.25 C 643.81414,308.84275 633.18348,307.41246 623.15625,304.96875 C 613.29882,302.52509 604.12265,299.26038 595.625,295.1875 L 604.5625,283.28125 C 612.38038,286.74321 620.88487,289.386 630.0625,291.21875 C 639.40992,293.05155 649.1776,293.96877 659.375,293.96875 C 664.15444,293.96878 668.84273,293.76079 673.4375,293.375 L 673.4375,278.96875 C 673.25337,277.03581 674.09928,274.79819 675.9375,272.3125 C 677.77515,269.55104 679.5992,268.18769 681.4375,268.1875 L 705.15625,268.1875 L 705.15625,253.6875 L 639,253.6875 L 639,246.21875 L 622.1875,246.21875 L 535.34375,377.96875 L 505,332.8125 L 498.375,342.75 L 478.375,310.15625 z"
             id="path3396"
             transform="translate(26.203119,29.690806)" />
        </g>
        <path
           id="path3398"
           d="M -561.64636,97.353499 L -561.64636,114.44725 L -546.75496,114.44725 C -544.43206,114.44749 -541.78956,116.55688 -538.83316,120.791 C -535.87676,124.69987 -534.39606,129.93307 -534.39606,136.44725 L -534.39606,324.04099 C -534.39606,326.97249 -534.94076,328.93886 -535.99666,329.91599 C -537.05256,330.56745 -537.98846,330.88475 -538.83316,330.88474 L -555.62906,330.88474 L -555.62906,341.63474 L -515.08796,341.63474 L -515.08796,354.35349 L -459.65546,354.35349 C -459.65556,352.39917 -459.42956,350.28979 -459.00706,348.00974 C -458.37366,345.72971 -456.27596,344.57224 -452.68585,344.57224 L -441.60341,344.57224 L -441.60341,330.88474 L -451.73361,330.88474 C -453.63431,330.88476 -455.84506,330.07586 -458.37906,328.44724 C -460.91326,326.49294 -463.44266,324.20927 -465.97666,321.60349 C -468.29966,318.67204 -470.30476,315.57947 -471.99406,312.32224 C -473.68356,308.73936 -474.52666,305.50377 -474.52656,302.57224 L -474.52656,231.22849 L -360.82514,231.22849 L -360.82514,330.88474 L -343.07701,330.88474 L -343.07701,341.63474 L -311.08582,341.63474 L -311.08582,330.88474 L -294.6141,330.88474 L -294.6141,319.66599 L -311.08582,319.66599 L -311.08582,157.44725 C -313.40901,152.56165 -315.93845,148.34287 -318.68348,144.75975 C -321.21783,140.85132 -324.29197,137.58447 -327.8817,134.9785 C -331.47192,132.37296 -335.89338,130.4066 -341.17254,129.1035 C -346.45213,127.80085 -353.01188,127.16623 -360.82514,127.166 L -360.82514,206.29099 L -491.32246,206.29099 L -491.32246,97.353499 L -561.64636,97.353499 z M 187.78635,206.29099 C 176.80514,206.29114 166.44115,207.76591 156.72711,210.69724 L 157.67938,218.50974 C 145.64236,222.74423 135.41153,229.27793 126.9646,238.07224 C 118.5176,246.54107 113.02693,256.31035 110.49292,267.38474 L 99.410439,267.38474 L 103.82721,283.97849 L 119.04275,283.97849 C 118.83158,283.0014 118.71864,281.38361 118.71858,279.10349 C 118.71858,271.93774 120.5179,265.08671 124.10791,258.57224 C 127.6978,252.05794 132.55096,246.36441 138.67511,241.47849 C 144.79913,236.59281 151.88328,232.86562 159.90802,230.25974 C 168.1438,227.32839 176.89396,225.85362 186.18581,225.85349 C 195.4774,225.85362 204.24786,227.32839 212.48376,230.25974 C 220.71948,232.86562 227.8964,236.59282 234.02062,241.47849 C 240.14451,246.3644 244.99768,252.05793 248.58789,258.57224 C 252.17764,265.08672 253.97696,271.93774 253.97709,279.10349 C 253.97696,286.59512 252.17764,293.58915 248.58789,300.10349 C 244.99774,306.29222 240.14458,311.84273 234.02062,316.72849 C 227.8964,321.2886 220.71948,325.04704 212.48376,327.97849 C 204.24786,330.58427 195.47733,331.88476 186.18581,331.88474 C 178.79455,331.88476 171.84364,331.04461 165.29729,329.41599 C 158.75081,327.46169 152.71548,325.035 147.225,322.10349 L 140.57959,332.85349 C 146.70361,336.76214 153.3561,339.85471 160.53606,342.13474 C 167.71596,344.41479 175.32454,345.71528 183.34935,346.04099 L 184.30156,354.35349 L 187.78635,354.35349 C 200.0344,354.35349 211.53999,352.5614 222.3101,348.97849 C 233.29105,345.39558 242.90473,340.51094 251.14063,334.32224 C 259.58751,327.80787 266.3327,320.32224 271.40105,311.85349 C 276.46907,303.38482 279.31726,294.25014 279.95101,284.47849 L 297.37496,284.47849 L 297.37496,277.16599 L 279.95101,277.16599 C 279.31726,267.39448 276.46907,258.2598 271.40105,249.79099 C 266.54387,240.99666 259.89138,233.51103 251.44457,227.32224 C 243.2086,220.80798 233.59499,215.74904 222.61397,212.16599 C 211.63276,208.2575 200.0344,206.29114 187.78635,206.29099 z M -176.86058,207.29099 L -191.75198,232.69724 L -193.65646,231.22849 L -206.31922,253.19724 L -193.96037,253.19724 L -187.94302,243.44724 L -170.84324,271.79099 C -169.78746,273.41968 -169.99319,274.3716 -171.47131,274.69724 L -208.85177,274.69724 L -213.61297,284.97849 L -224.69542,284.97849 L -257.01078,341.16599 L -268.09322,341.16599 L -268.09322,354.35349 L -237.05427,354.35349 L -233.87338,347.00974 L -202.53052,347.00974 L -202.53052,341.16599 L -218.35391,341.16599 C -221.09923,339.53741 -221.41795,336.44483 -219.30615,331.88474 L -197.76933,294.25974 L -157.53214,294.25974 L -130.30215,341.16599 L -138.85204,341.16599 L -138.85204,348.97849 L -127.44543,348.97849 C -125.75618,348.9785 -124.7073,349.29582 -124.2848,349.94724 C -123.65143,350.59869 -123.01399,351.58186 -122.38033,352.88474 L -121.75225,354.35349 L -99.891268,354.35349 L -100.21543,348.97849 L -78.658348,348.97849 L -78.658348,341.16599 L -95.454228,341.16599 L -176.86058,207.29099 z M -60.829181,208.25974 L -60.829181,218.04099 L -45.309701,218.04099 C -44.253851,218.04113 -43.091991,219.02431 -41.824911,220.97849 C -40.557881,222.60722 -40.033431,224.05074 -40.244601,225.35349 L -40.244601,324.54099 C -40.244621,326.49533 -40.882051,328.779 -42.149081,331.38474 C -43.204981,333.6648 -44.253841,334.791 -45.309701,334.79099 L -57.668551,334.79099 L -57.668551,343.60349 L -28.837981,343.60349 L -28.837981,354.35349 L 67.763669,354.35349 L 72.524869,345.54099 L 83.283149,345.54099 L 83.283149,308.41599 L 77.914139,308.41599 L 77.914139,314.29099 C 77.913989,315.91963 76.639139,318.02902 74.105179,320.63474 C 71.782109,323.24053 69.982809,324.54102 68.715909,324.54099 L -5.396681,324.54099 L -5.396681,238.54099 C -5.185571,234.95819 -4.455421,232.03991 -3.188301,229.75974 C -1.710141,227.15411 0.202139,225.67934 2.525139,225.35349 L 10.426699,225.35349 L 10.426699,216.57224 L -17.431371,216.57224 L -17.431371,208.25974 L -60.829181,208.25974 z M 187.78635,268.35349 C 183.56279,268.35358 179.85121,269.65407 176.68365,272.25974 C 173.72712,274.53986 172.26681,277.48939 172.26688,281.07224 C 172.26681,284.65523 173.72712,287.74779 176.68365,290.35349 C 179.85121,292.95931 183.56272,294.2598 187.78635,294.25974 C 191.5874,294.2598 194.84696,293.27662 197.59239,291.32224 C 200.54873,289.36799 202.34805,286.76702 202.98166,283.50974 L 213.7602,283.50974 L 213.7602,278.13474 L 202.98166,278.13474 C 202.13682,275.20334 200.33757,272.91968 197.59239,271.29099 C 194.84703,269.33676 191.5874,268.35357 187.78635,268.35349 z"
           style="font-size:488.57992553999991969px;font-style:normal;font-variant:normal;font-weight:normal;font-stretch:normal;text-align:start;line-height:125%;writing-mode:lr-tb;text-anchor:start;fill:#2b0004;fill-opacity:1;stroke:none;stroke-width:1px;stroke-linecap:butt;stroke-linejoin:miter;stroke-opacity:1;display:inline;font-family:Halo;-inkscape-font-specification:Halo" />
        <text
           sodipodi:linespacing="125%"
           id="text3400"
           y="548.94452"
           x="-494.84058"
           style="font-size:267.86749267999999802px;font-style:normal;font-variant:normal;font-weight:normal;font-stretch:normal;text-align:start;line-height:125%;writing-mode:lr-tb;text-anchor:start;fill:none;fill-opacity:1;stroke:#000000;stroke-width:4.40000009999999975;stroke-linecap:butt;stroke-linejoin:miter;stroke-miterlimit:4;stroke-dasharray:none;stroke-opacity:1;font-family:Halo;-inkscape-font-specification:Halo"
           xml:space="preserve"><tspan
             y="548.94452"
             x="-494.84058"
             id="tspan3402"
             sodipodi:role="line">v0.1.7</tspan></text>
      </g>
      <g
         id="g3255" />
      <g
         id="g3382">
        <g
           id="g3312"
           transform="matrix(1.499564,0,0,1.499564,-139.69893,-155.7968)">
          <path
             id="path3308"
             transform="translate(26.203119,29.690806)"
             d="M 661.15625,157.75 C 653.5082,157.75017 646.10674,158.15435 638.96875,158.96875 C 631.83057,159.78348 624.86061,160.88717 618.0625,162.3125 L 619.34375,170.875 C 610.84597,173.11522 602.93297,176.08459 595.625,179.75 C 588.48685,183.21206 582.02838,187.28513 576.25,191.96875 C 570.64147,196.44898 565.90894,201.43929 562,206.9375 C 558.57966,211.57046 555.97874,216.49355 554.25,221.75 C 554.00306,222.50092 553.77494,223.2676 553.5625,224.03125 L 553.3125,224.03125 L 537.78125,224.03125 L 544.15625,242.0625 L 565.3125,242.0625 C 565.22752,241.55344 565.13624,241.05194 565.09375,240.59375 C 565.05128,240.13556 565.03124,239.71981 565.03125,239.3125 C 565.03124,238.49799 565.03122,237.58078 565.03125,236.5625 C 565.03125,230.60605 566.44635,224.91508 569.21875,219.53125 C 569.4498,219.0826 569.68721,218.63218 569.9375,218.1875 C 570.68838,216.85347 571.51336,215.54824 572.4375,214.25 C 577.36616,207.32628 584.06472,201.30991 592.5625,196.21875 C 601.23013,190.92419 611.26924,186.77352 622.65625,183.71875 C 634.04315,180.66428 646.28835,179.12513 659.375,179.125 C 672.29145,179.12514 684.53668,180.66428 696.09375,183.71875 C 707.65053,186.77352 717.65836,190.92419 726.15625,196.21875 C 734.65381,201.30991 741.38361,207.32628 746.3125,214.25 C 751.41091,221.17394 753.93728,228.62056 753.9375,236.5625 C 753.93729,244.5046 751.41091,252.02886 746.3125,259.15625 C 741.38361,266.08016 734.65382,272.20536 726.15625,277.5 C 717.65835,282.59111 707.65052,286.66414 696.09375,289.71875 C 688.81312,291.51484 681.26012,292.7182 673.4375,293.375 L 673.4375,318.09375 C 686.1064,317.39048 698.24781,315.55822 709.84375,312.625 C 725.13952,308.55219 738.56788,303.15769 750.125,296.4375 C 761.68174,289.51372 771.01789,281.44519 778.15625,272.28125 C 785.29412,262.9138 789.30624,252.93319 790.15625,242.34375 L 814.375,242.34375 L 814.375,234.40625 L 790.15625,234.40625 C 789.30624,223.81696 785.29408,213.83641 778.15625,204.46875 C 771.18792,195.10136 761.9317,186.95521 750.375,180.03125 C 738.81789,173.10757 725.38952,167.71308 710.09375,163.84375 C 694.79766,159.77107 678.49152,157.75017 661.15625,157.75 z M 662.8125,229.4375 C 657.31575,229.43757 652.58231,230.52016 648.65625,232.71875 C 644.72997,234.76043 642.78115,237.29744 642.78125,240.28125 C 642.78117,243.26522 644.72995,245.83265 648.65625,248.03125 C 652.58233,250.07291 657.31575,251.09379 662.8125,251.09375 C 667.8379,251.09379 672.13778,250.32053 675.75,248.75 C 679.36197,247.02255 681.65133,244.91904 682.59375,242.40625 L 696.25,242.40625 L 696.25,237.90625 L 682.59375,237.90625 C 681.4943,235.39356 679.14322,233.35179 675.53125,231.78125 C 671.91906,230.21083 667.68086,229.43757 662.8125,229.4375 z"
             style="font-size:714.74145508px;font-style:normal;font-variant:normal;font-weight:normal;font-stretch:normal;text-align:start;line-height:125%;writing-mode:lr-tb;text-anchor:start;opacity:1;fill:#000e54;fill-opacity:1;stroke:none;stroke-width:1px;stroke-linecap:butt;stroke-linejoin:miter;stroke-opacity:1;display:inline;font-family:Halo;-inkscape-font-specification:Halo" />
          <path
             transform="translate(26.203119,29.690806)"
             id="path3306"
             d="M 420.375,166.46875 C 403.51161,166.46892 387.58901,168.5301 372.5625,172.65625 C 357.53577,176.57644 344.32213,182.04788 332.96875,189.0625 C 321.61521,196.07742 312.44988,204.21587 305.4375,213.5 C 298.425,222.78439 294.49106,232.80286 293.65625,243.53125 L 269.875,243.53125 L 269.875,251.5625 L 293.65625,251.5625 C 294.32409,262.49737 298.17501,272.72823 305.1875,282.21875 C 312.19985,291.50308 321.36523,299.64151 332.71875,306.65625 C 344.07215,313.67107 357.28579,319.24866 372.3125,323.375 C 380.58091,325.53204 389.15612,327.06114 398.03125,328.03125 L 398.03125,305.75 C 393.85665,305.08911 389.77731,304.27376 385.8125,303.25 C 374.62588,300.15529 364.79625,296.03297 356.28125,290.875 C 347.93302,285.51083 341.34186,279.32735 336.5,272.3125 C 331.65801,265.0915 329.21872,257.45267 329.21875,249.40625 C 329.2187,241.35998 332.07319,233.82736 337.75,226.8125 C 343.59359,219.79783 350.93213,213.72055 359.78125,208.5625 C 368.79714,203.19839 378.74104,198.96988 389.59375,195.875 C 400.61313,192.78039 411.3562,191.21888 421.875,191.21875 C 432.39346,191.21889 441.25795,191.82475 448.4375,193.0625 C 455.78365,194.30055 462.20878,195.96822 467.71875,198.03125 C 473.22829,200.09456 478.15875,202.36809 482.5,204.84375 C 486.84079,207.11337 491.19001,209.49306 495.53125,211.96875 L 504.28125,200.1875 C 500.77479,197.2992 496.01042,194.41982 490,191.53125 C 483.98908,188.43662 477.3149,185.73838 469.96875,183.46875 C 462.78916,180.9931 455.36757,179.03812 447.6875,177.59375 C 440.00701,176.14969 432.91765,175.54382 426.40625,175.75 L 425.15625,166.46875 L 420.375,166.46875 z M 398.03125,305.75 C 405.63488,306.9538 413.57541,307.59377 421.875,307.59375 C 432.89436,307.59381 443.41957,306.45701 453.4375,304.1875 C 459.81929,302.74174 465.80618,300.91815 471.375,298.71875 L 446.5625,258.25 L 432.5,258.25 L 432.5,246.65625 L 366.34375,246.65625 L 366.34375,261.125 L 389.78125,261.125 C 391.61913,261.12523 393.4433,262.5198 395.28125,265.28125 C 397.11914,267.76695 398.03118,269.97329 398.03125,271.90625 L 398.03125,305.75 z M 471.375,298.71875 L 478.375,310.15625 C 480.37406,309.251 482.3378,308.2939 484.25,307.28125 C 491.42914,303.56758 497.77124,299.44527 503.28125,294.90625 C 508.95774,290.16103 513.72212,285.08302 517.5625,279.71875 C 521.40239,274.14825 524.14258,268.28332 525.8125,262.09375 C 527.64884,256.11065 528.64526,250.10827 528.8125,244.125 L 470.46875,244.125 L 470.46875,253.4375 L 481.5,253.4375 L 481.5,261.78125 L 512.5625,261.78125 C 510.22479,268.38347 506.2908,274.46074 500.78125,280.03125 C 495.27125,285.60187 488.51398,290.46744 480.5,294.59375 C 477.59124,296.09139 474.54761,297.46573 471.375,298.71875 z M 478.375,310.15625 C 473.04285,312.5709 467.41894,314.59936 461.46875,316.25 L 462.46875,324.59375 C 449.44543,327.68854 435.40148,329.25 420.375,329.25 C 412.71569,329.25001 405.28524,328.82415 398.03125,328.03125 L 398.03125,425.59375 C 398.03118,428.63162 397.11916,431.81102 395.28125,435.125 C 393.44328,438.43902 391.61914,440.22387 389.78125,440.5 L 371.5625,440.5 L 371.5625,453.78125 L 393.34375,453.78125 L 393.34375,464.125 L 435.8125,464.125 L 435.8125,455.84375 L 451.25,455.84375 L 451.25,339.84375 L 512.1875,434.71875 L 546.625,434.71875 L 571.15625,395.34375 L 584.125,395.34375 L 620.25,339.03125 L 620.25,448.375 L 603.96875,448.375 L 603.96875,453.78125 L 620.25,453.78125 L 620.25,464.125 L 656.375,464.125 L 656.375,455.84375 L 699.65625,455.84375 L 699.65625,444.65625 L 681.4375,444.65625 C 679.78308,444.38013 678.05639,442.59529 676.21875,439.28125 C 674.38047,435.96731 673.43716,432.78786 673.4375,429.75 L 673.4375,318.09375 C 669.39496,318.31819 665.30859,318.40625 661.15625,318.40625 L 656.3125,318.40625 L 655.03125,309.25 C 643.81414,308.84275 633.18348,307.41246 623.15625,304.96875 C 613.29882,302.52509 604.12265,299.26038 595.625,295.1875 L 604.5625,283.28125 C 612.38038,286.74321 620.88487,289.386 630.0625,291.21875 C 639.40992,293.05155 649.1776,293.96877 659.375,293.96875 C 664.15444,293.96878 668.84273,293.76079 673.4375,293.375 L 673.4375,278.96875 C 673.25337,277.03581 674.09928,274.79819 675.9375,272.3125 C 677.77515,269.55104 679.5992,268.18769 681.4375,268.1875 L 705.15625,268.1875 L 705.15625,253.6875 L 639,253.6875 L 639,246.21875 L 622.1875,246.21875 L 535.34375,377.96875 L 505,332.8125 L 498.375,342.75 L 478.375,310.15625 z"
             style="font-size:714.74145508px;font-style:normal;font-variant:normal;font-weight:normal;font-stretch:normal;text-align:start;line-height:125%;writing-mode:lr-tb;text-anchor:start;opacity:1;fill:#002d16;fill-opacity:1;stroke:none;stroke-width:1px;stroke-linecap:butt;stroke-linejoin:miter;stroke-opacity:1;display:inline;font-family:Halo;-inkscape-font-specification:Halo" />
        </g>
        <path
           style="font-size:488.57992554px;font-style:normal;font-variant:normal;font-weight:normal;font-stretch:normal;text-align:start;line-height:125%;writing-mode:lr-tb;text-anchor:start;fill:#2b0004;fill-opacity:1;stroke:none;stroke-width:1px;stroke-linecap:butt;stroke-linejoin:miter;stroke-opacity:1;display:inline;font-family:Halo;-inkscape-font-specification:Halo"
           d="M -561.64636,97.353499 L -561.64636,114.44725 L -546.75496,114.44725 C -544.43206,114.44749 -541.78956,116.55688 -538.83316,120.791 C -535.87676,124.69987 -534.39606,129.93307 -534.39606,136.44725 L -534.39606,324.04099 C -534.39606,326.97249 -534.94076,328.93886 -535.99666,329.91599 C -537.05256,330.56745 -537.98846,330.88475 -538.83316,330.88474 L -555.62906,330.88474 L -555.62906,341.63474 L -515.08796,341.63474 L -515.08796,354.35349 L -459.65546,354.35349 C -459.65556,352.39917 -459.42956,350.28979 -459.00706,348.00974 C -458.37366,345.72971 -456.27596,344.57224 -452.68585,344.57224 L -441.60341,344.57224 L -441.60341,330.88474 L -451.73361,330.88474 C -453.63431,330.88476 -455.84506,330.07586 -458.37906,328.44724 C -460.91326,326.49294 -463.44266,324.20927 -465.97666,321.60349 C -468.29966,318.67204 -470.30476,315.57947 -471.99406,312.32224 C -473.68356,308.73936 -474.52666,305.50377 -474.52656,302.57224 L -474.52656,231.22849 L -360.82514,231.22849 L -360.82514,330.88474 L -343.07701,330.88474 L -343.07701,341.63474 L -311.08582,341.63474 L -311.08582,330.88474 L -294.6141,330.88474 L -294.6141,319.66599 L -311.08582,319.66599 L -311.08582,157.44725 C -313.40901,152.56165 -315.93845,148.34287 -318.68348,144.75975 C -321.21783,140.85132 -324.29197,137.58447 -327.8817,134.9785 C -331.47192,132.37296 -335.89338,130.4066 -341.17254,129.1035 C -346.45213,127.80085 -353.01188,127.16623 -360.82514,127.166 L -360.82514,206.29099 L -491.32246,206.29099 L -491.32246,97.353499 L -561.64636,97.353499 z M 187.78635,206.29099 C 176.80514,206.29114 166.44115,207.76591 156.72711,210.69724 L 157.67938,218.50974 C 145.64236,222.74423 135.41153,229.27793 126.9646,238.07224 C 118.5176,246.54107 113.02693,256.31035 110.49292,267.38474 L 99.410439,267.38474 L 103.82721,283.97849 L 119.04275,283.97849 C 118.83158,283.0014 118.71864,281.38361 118.71858,279.10349 C 118.71858,271.93774 120.5179,265.08671 124.10791,258.57224 C 127.6978,252.05794 132.55096,246.36441 138.67511,241.47849 C 144.79913,236.59281 151.88328,232.86562 159.90802,230.25974 C 168.1438,227.32839 176.89396,225.85362 186.18581,225.85349 C 195.4774,225.85362 204.24786,227.32839 212.48376,230.25974 C 220.71948,232.86562 227.8964,236.59282 234.02062,241.47849 C 240.14451,246.3644 244.99768,252.05793 248.58789,258.57224 C 252.17764,265.08672 253.97696,271.93774 253.97709,279.10349 C 253.97696,286.59512 252.17764,293.58915 248.58789,300.10349 C 244.99774,306.29222 240.14458,311.84273 234.02062,316.72849 C 227.8964,321.2886 220.71948,325.04704 212.48376,327.97849 C 204.24786,330.58427 195.47733,331.88476 186.18581,331.88474 C 178.79455,331.88476 171.84364,331.04461 165.29729,329.41599 C 158.75081,327.46169 152.71548,325.035 147.225,322.10349 L 140.57959,332.85349 C 146.70361,336.76214 153.3561,339.85471 160.53606,342.13474 C 167.71596,344.41479 175.32454,345.71528 183.34935,346.04099 L 184.30156,354.35349 L 187.78635,354.35349 C 200.0344,354.35349 211.53999,352.5614 222.3101,348.97849 C 233.29105,345.39558 242.90473,340.51094 251.14063,334.32224 C 259.58751,327.80787 266.3327,320.32224 271.40105,311.85349 C 276.46907,303.38482 279.31726,294.25014 279.95101,284.47849 L 297.37496,284.47849 L 297.37496,277.16599 L 279.95101,277.16599 C 279.31726,267.39448 276.46907,258.2598 271.40105,249.79099 C 266.54387,240.99666 259.89138,233.51103 251.44457,227.32224 C 243.2086,220.80798 233.59499,215.74904 222.61397,212.16599 C 211.63276,208.2575 200.0344,206.29114 187.78635,206.29099 z M -176.86058,207.29099 L -191.75198,232.69724 L -193.65646,231.22849 L -206.31922,253.19724 L -193.96037,253.19724 L -187.94302,243.44724 L -170.84324,271.79099 C -169.78746,273.41968 -169.99319,274.3716 -171.47131,274.69724 L -208.85177,274.69724 L -213.61297,284.97849 L -224.69542,284.97849 L -257.01078,341.16599 L -268.09322,341.16599 L -268.09322,354.35349 L -237.05427,354.35349 L -233.87338,347.00974 L -202.53052,347.00974 L -202.53052,341.16599 L -218.35391,341.16599 C -221.09923,339.53741 -221.41795,336.44483 -219.30615,331.88474 L -197.76933,294.25974 L -157.53214,294.25974 L -130.30215,341.16599 L -138.85204,341.16599 L -138.85204,348.97849 L -127.44543,348.97849 C -125.75618,348.9785 -124.7073,349.29582 -124.2848,349.94724 C -123.65143,350.59869 -123.01399,351.58186 -122.38033,352.88474 L -121.75225,354.35349 L -99.891268,354.35349 L -100.21543,348.97849 L -78.658348,348.97849 L -78.658348,341.16599 L -95.454228,341.16599 L -176.86058,207.29099 z M -60.829181,208.25974 L -60.829181,218.04099 L -45.309701,218.04099 C -44.253851,218.04113 -43.091991,219.02431 -41.824911,220.97849 C -40.557881,222.60722 -40.033431,224.05074 -40.244601,225.35349 L -40.244601,324.54099 C -40.244621,326.49533 -40.882051,328.779 -42.149081,331.38474 C -43.204981,333.6648 -44.253841,334.791 -45.309701,334.79099 L -57.668551,334.79099 L -57.668551,343.60349 L -28.837981,343.60349 L -28.837981,354.35349 L 67.763669,354.35349 L 72.524869,345.54099 L 83.283149,345.54099 L 83.283149,308.41599 L 77.914139,308.41599 L 77.914139,314.29099 C 77.913989,315.91963 76.639139,318.02902 74.105179,320.63474 C 71.782109,323.24053 69.982809,324.54102 68.715909,324.54099 L -5.396681,324.54099 L -5.396681,238.54099 C -5.185571,234.95819 -4.455421,232.03991 -3.188301,229.75974 C -1.710141,227.15411 0.202139,225.67934 2.525139,225.35349 L 10.426699,225.35349 L 10.426699,216.57224 L -17.431371,216.57224 L -17.431371,208.25974 L -60.829181,208.25974 z M 187.78635,268.35349 C 183.56279,268.35358 179.85121,269.65407 176.68365,272.25974 C 173.72712,274.53986 172.26681,277.48939 172.26688,281.07224 C 172.26681,284.65523 173.72712,287.74779 176.68365,290.35349 C 179.85121,292.95931 183.56272,294.2598 187.78635,294.25974 C 191.5874,294.2598 194.84696,293.27662 197.59239,291.32224 C 200.54873,289.36799 202.34805,286.76702 202.98166,283.50974 L 213.7602,283.50974 L 213.7602,278.13474 L 202.98166,278.13474 C 202.13682,275.20334 200.33757,272.91968 197.59239,271.29099 C 194.84703,269.33676 191.5874,268.35357 187.78635,268.35349 z"
           id="path3329" />
        <text
           xml:space="preserve"
           style="font-size:267.86749268px;font-style:normal;font-variant:normal;font-weight:normal;font-stretch:normal;text-align:start;line-height:125%;writing-mode:lr-tb;text-anchor:start;fill:none;fill-opacity:1;stroke:#000000;stroke-width:4.4000001;stroke-linecap:butt;stroke-linejoin:miter;stroke-miterlimit:4;stroke-dasharray:none;stroke-opacity:1;font-family:Halo;-inkscape-font-specification:Halo"
           x="-494.84058"
           y="548.94452"
           id="text3335"
           sodipodi:linespacing="125%"><tspan
             sodipodi:role="line"
             id="tspan3337"
             x="-494.84058"
             y="548.94452">v0.1.7</tspan></text>
      </g>
    </g>
  </g>
  <g
     inkscape:groupmode="layer"
     id="layer2"
     inkscape:label="Invisible"
     style="display:inline"
     transform="translate(596.6254,-61.341745)"
     sodipodi:insensitive="true" />
</svg>
